<?xml version="1.0" standalone="no"?>
<!DOCTYPE svg PUBLIC "-//W3C//DTD SVG 20010904//EN"
 "http://www.w3.org/TR/2001/REC-SVG-20010904/DTD/svg10.dtd">
<svg version="1.0" xmlns="http://www.w3.org/2000/svg"
 width="400.000000pt" height="300.000000pt" viewBox="0 0 400.000000 300.000000"
 preserveAspectRatio="xMidYMid meet">

<g transform="translate(0.000000,300.000000) scale(0.100000,-0.100000)"
fill="#000000" stroke="none">
<path d="M1060 2609 c0 -30 50 -179 86 -258 51 -111 138 -235 230 -328 45 -46
81 -83 80 -83 -1 0 -76 40 -166 89 -116 63 -167 86 -172 78 -13 -20 -9 -147 7
-220 16 -79 62 -170 117 -232 l39 -44 -71 24 -71 24 -10 -26 c-42 -110 -49
-405 -14 -553 l18 -75 13 87 c30 202 111 365 254 509 85 86 107 102 200 147
136 66 229 86 390 87 127 0 220 -10 220 -24 0 -4 -20 -19 -45 -32 l-45 -25 50
-37 c27 -20 53 -37 57 -37 5 0 108 40 231 89 122 48 222 85 221 82 0 -3 -71
-61 -157 -129 -86 -68 -167 -132 -179 -142 l-23 -18 125 -167 c116 -155 125
-170 125 -211 0 -70 -20 -105 -82 -142 -31 -18 -71 -35 -90 -38 -30 -5 -40 -1
-74 31 -55 53 -162 101 -284 129 l-105 23 -3 -23 c-5 -36 35 -171 71 -239 45
-86 174 -212 262 -257 247 -127 543 -92 733 86 273 258 235 700 -93 1053 -231
251 -654 483 -1191 656 -175 56 -439 125 -576 150 -74 14 -78 14 -78 -4z"/>
<path d="M2141 1520 c22 -39 43 -55 60 -44 5 3 9 10 9 15 0 17 -57 69 -75 69
-14 0 -13 -5 6 -40z"/>
<path d="M1695 1376 c-32 -55 -76 -194 -74 -235 2 -23 2 -24 6 -3 2 12 10 22
16 22 7 0 38 13 70 30 32 16 64 27 72 23 8 -3 15 0 15 6 0 9 6 9 23 0 12 -6 3
6 -20 28 -44 41 -60 72 -72 138 l-7 40 -29 -49z"/>
</g>
</svg>
